{
  "asset": {"generator": "Khronos glTF Blender I/O v3.4.50; material adapted for Lanternfall W04", "version": "2.0"},
  "scene": 0,
  "scenes": [{"name": "Scene", "nodes": [0]}],
  "nodes": [{"mesh": 0, "name": "tree_single_A"}],
  "materials": [{"name": "lanternfall_forest_green", "pbrMetallicRoughness": {"baseColorFactor": [0.17, 0.34, 0.16, 1.0], "metallicFactor": 0, "roughnessFactor": 0.82}}],
  "meshes": [{"name": "tree_single_A", "primitives": [{"attributes": {"POSITION": 0, "TEXCOORD_0": 1, "NORMAL": 2}, "indices": 3, "material": 0}]}],
  "accessors": [
    {"bufferView": 0, "componentType": 5126, "count": 95, "max": [0.28644031286239624, 1.0938414335250854, 0.2452930510044098], "min": [-0.28753381967544556, -0.10260728746652603, -0.30171626806259155], "type": "VEC3"},
    {"bufferView": 1, "componentType": 5126, "count": 95, "type": "VEC2"},
    {"bufferView": 2, "componentType": 5126, "count": 95, "type": "VEC3"},
    {"bufferView": 3, "componentType": 5123, "count": 150, "type": "SCALAR"}
  ],
  "bufferViews": [
    {"buffer": 0, "byteLength": 1140, "byteOffset": 0, "target": 34962},
    {"buffer": 0, "byteLength": 760, "byteOffset": 1140, "target": 34962},
    {"buffer": 0, "byteLength": 1140, "byteOffset": 1900, "target": 34962},
    {"buffer": 0, "byteLength": 300, "byteOffset": 3040, "target": 34963}
  ],
  "buffers": [{"byteLength": 3340, "uri": "tree_single_A.bin"}]
}
