<svg xmlns="http://www.w3.org/2000/svg" viewBox="0 0 128 128"><defs><linearGradient id="h5"><stop stop-color="#1b2e45"/><stop offset=".58" stop-color="#b4a5cf"/><stop offset="1" stop-color="#f2b55d"/></linearGradient></defs><path d="M23 64c0-17 13-30 30-30h19v20H53a10 10 0 0 0 0 20h22a10 10 0 0 0 0-20H62V34h13a30 30 0 1 1 0 60H53c-17 0-30-13-30-30Z" fill="url(#h5)" stroke="#08111e" stroke-width="7"/><path d="M35 68c16-22 42-22 58 0-16 22-42 22-58 0Z" fill="#1b2e45" stroke="#f4c36c" stroke-width="5"/><path d="M64 57a11 11 0 1 0 0 22 11 11 0 0 0 0-22Z" fill="#f4c36c"/></svg>