<svg xmlns="http://www.w3.org/2000/svg" viewBox="0 0 96 112"><defs><linearGradient id="coat" x1="0" y1="0" x2="1" y2="1"><stop stop-color="#263b54"/><stop offset="1" stop-color="#101827"/></linearGradient><linearGradient id="light" x1="0" x2="1"><stop stop-color="#fff1bd"/><stop offset="1" stop-color="#ef8a45"/></linearGradient></defs><path d="M48 8 C35 8 27 18 28 32 L18 46 L24 55 L20 96 L43 103 L50 78 L59 104 L79 94 L69 53 L76 45 L66 31 C67 18 60 8 48 8Z" fill="url(#coat)" stroke="#080d18" stroke-width="5" stroke-linejoin="round"/><path d="M34 25 C38 17 57 15 63 26 L59 38 L36 38Z" fill="#d4c1a6" stroke="#101827" stroke-width="4"/><path d="M40 24 L55 21 L60 28 L36 31Z" fill="#758aa0"/><path d="M36 44 L61 44 L66 63 L50 73 L32 61Z" fill="#314d66" stroke="#0b1422" stroke-width="4"/><path d="M43 49 L55 49 L59 59 L49 67 L39 59Z" fill="url(#light)" stroke="#74472f" stroke-width="2"/><path d="M64 46 L86 17 L90 20 L70 53Z" fill="#a9c7d0" stroke="#0a101a" stroke-width="3"/><path d="M79 16 L92 9 L90 24Z" fill="#f2b463"/><path d="M25 53 L9 73 L13 78 L31 63Z" fill="#738ca0" stroke="#0a101a" stroke-width="3"/><path d="M28 90 L18 106 L34 107 L45 94Z" fill="#172436"/><path d="M60 91 L69 108 L83 101 L70 86Z" fill="#172436"/></svg>