<svg xmlns="http://www.w3.org/2000/svg" width="512" height="512" viewBox="0 0 512 512">
  <defs>
    <linearGradient id="steel" x1="0" y1="0" x2="1" y2="1"><stop stop-color="#728296"/><stop offset="1" stop-color="#283649"/></linearGradient>
    <linearGradient id="gold" x1="0" x2="1"><stop stop-color="#fff2bd"/><stop offset="0.5" stop-color="#ffb44e"/><stop offset="1" stop-color="#df5c34"/></linearGradient>
  </defs>
  <path d="M135 287 L169 227 L216 202 L296 202 L343 227 L377 287 L348 326 L297 348 L215 348 L164 326Z" fill="url(#steel)" stroke="#08111d" stroke-width="15" stroke-linejoin="round"/>
  <path d="M181 231 L218 181 L294 181 L331 231 L309 249 L203 249Z" fill="#3b4d61" stroke="#0b1624" stroke-width="10" stroke-linejoin="round"/>
  <path d="M219 205 L293 205 L310 231 L289 241 L223 241 L202 231Z" fill="#79c9d0" opacity="0.78"/>
  <path d="M225 257 L256 239 L288 258 L287 309 L256 328 L225 309Z" fill="url(#gold)" stroke="#74412f" stroke-width="9" stroke-linejoin="round"/>
  <path d="M241 276 L256 268 L271 277 L271 300 L256 309 L241 300Z" fill="#fff7cc"/>
  <path d="M167 282 L134 267 L120 288 L158 308 M345 282 L378 267 L392 288 L354 308" fill="#637487" stroke="#0b1522" stroke-width="9" stroke-linejoin="round"/>
</svg>
