{
  "asset": {"generator": "KayKit Medieval Hexagon Pack 1.0; Lanternfall W02 material adaptation", "version": "2.0"},
  "scene": 0,
  "scenes": [{"name": "Scene", "nodes": [0]}],
  "nodes": [{"mesh": 0, "name": "hex_grass"}],
  "materials": [{"name": "lanternfall_grass", "pbrMetallicRoughness": {"baseColorFactor": [0.29, 0.48, 0.22, 1.0], "metallicFactor": 0.0, "roughnessFactor": 0.92}}],
  "meshes": [{"name": "hex_grass", "primitives": [{"attributes": {"POSITION": 0, "TEXCOORD_0": 1, "NORMAL": 2}, "indices": 3, "material": 0}]}],
  "accessors": [
    {"bufferView": 0, "componentType": 5126, "count": 70, "max": [1, 0, 1.1547000408172607], "min": [-1, -1, -1.1547000408172607], "type": "VEC3"},
    {"bufferView": 1, "componentType": 5126, "count": 70, "type": "VEC2"},
    {"bufferView": 2, "componentType": 5126, "count": 70, "type": "VEC3"},
    {"bufferView": 3, "componentType": 5123, "count": 108, "type": "SCALAR"}
  ],
  "bufferViews": [
    {"buffer": 0, "byteLength": 840, "byteOffset": 0, "target": 34962},
    {"buffer": 0, "byteLength": 560, "byteOffset": 840, "target": 34962},
    {"buffer": 0, "byteLength": 840, "byteOffset": 1400, "target": 34962},
    {"buffer": 0, "byteLength": 216, "byteOffset": 2240, "target": 34963}
  ],
  "buffers": [{"byteLength": 2456, "uri": "hex_grass.bin"}]
}
